<svg width="1021" height="757" viewBox="0 0 1021 757" fill="none" xmlns="http://www.w3.org/2000/svg">
<path fill-rule="evenodd" clip-rule="evenodd" d="M996.081 233.472C981.802 234.874 967.523 236.274 953.243 237.676C884.855 242.901 816.494 253.813 748.63 260.362C746.94 257.612 743.633 258.065 741.625 259.976C734.853 259.383 727.263 254.207 721.129 259.591C720.93 259.563 720.731 259.53 720.529 259.511C709.607 238.548 702.058 216.189 694.73 193.8C690.054 180.035 683.761 166.71 672.133 157.468C652.289 143.693 606.822 115.76 583.52 116.934C583.134 112.762 581.189 108.462 577.995 105.684C585.034 93.6847 556.892 85.8557 554.907 87.2467C556.179 47.1586 537.322 12.3447 495.742 4.36165C458.492 -3.40035 405.509 -4.70435 385.475 34.2247C383.273 33.9767 360.762 33.8595 358.584 34.1035C355.197 29.8145 318.008 70.4565 333.25 84.6055C196.978 144.888 119.493 137.695 81.7747 307.164C76.6756 323.084 76.3042 340.505 70.9198 356.07C51.7635 400.801 36.2258 448.432 32.3589 497.104C23.0195 499.497 21.9454 515.964 32.7633 518.346C36.8955 519.257 40.3509 520.501 43.364 522.86C41.0086 562.746 50.6553 653.86 56.7335 653.579C69.127 693.022 124.409 704.154 163.546 690.292C156.799 702.985 163.546 710.966 163.546 717.748C304.373 723.076 458.353 720.008 599.141 727.315C617.15 727.059 636.092 731.738 653.855 729.045C664.688 726.448 664.706 709.415 653.718 707.309L701.731 696.88C700.658 696.475 721.522 682.598 737.291 656.665C751.969 627.655 741.979 592.637 748.63 561.081C800.574 556.833 853.377 555.017 904.753 546.22C911.758 567.179 942.082 542.113 951.721 532.03C951.709 532.014 951.697 531.999 951.685 531.983C956.349 530.707 960.09 526.335 960.215 521.159C963.486 516.485 964.173 509.897 961.036 505.38C975.415 422.412 997.335 337.7 1005.26 253.952C1008.06 253.332 1010.7 252.104 1012.93 250.212L1012.75 250.031C1016.54 245.807 1017.28 238.516 1010.96 234.927C1005.87 232.029 1001.61 232.928 996.081 233.472Z" fill="white"/>
<path fill-rule="evenodd" clip-rule="evenodd" d="M388.071 25.1835C392.314 14.5205 406.657 18.6655 405.058 29.8675C404.101 36.5775 400.426 43.6645 397.125 49.5455C394.437 54.3325 391.371 59.0045 387.214 62.5925C394.614 69.4965 402.295 76.1485 410.171 82.4645C418.765 89.3555 427.802 95.7075 437.143 101.546C445.334 106.666 453.895 111.202 461.616 117.044C468.795 122.475 475.335 129.007 478.663 137.534C482.209 146.614 480.668 155.991 478.057 165.066L477.757 166.092C475.09 175.082 470.473 185.919 476.875 194.389C480.134 198.701 484.872 201.755 488.963 205.202C492.599 208.266 496.012 211.598 499.142 215.177C505.967 222.979 511.518 231.758 515.021 241.54L515.335 242.428C518.337 251.088 520.531 261.696 516.474 270.198C515.31 272.635 511.556 271.843 510.904 269.47C509.43 264.094 509.507 258.464 508.271 253.012C506.985 247.342 504.845 241.96 502.05 236.868C496.642 227.017 489.319 218.602 480.666 211.488L478.076 209.382C471.325 203.842 465.123 197.966 463.753 188.798C462.287 178.989 466.217 169.645 468.744 160.361C470.505 153.891 471.08 147.689 469.177 141.842C466.852 145.637 463.68 149.239 461.171 152.452C456.174 158.853 451.13 165.215 446.099 171.589C440.941 178.125 435.91 184.764 431.119 191.575C428.976 194.622 426.856 197.687 424.743 200.755C423.154 203.061 420.938 205.365 419.206 207.717C419.627 208.975 419.595 210.425 418.832 211.455C409.647 223.865 396.58 197.971 393.172 191.429C386.232 178.106 381.067 163.952 374.104 150.632C366.889 136.824 358.673 123.384 349.516 110.778C343.977 103.153 337.769 95.9905 332.702 88.1235C320.765 98.9475 305.057 106.204 290.629 112.784C274.777 120.012 258.308 125.917 242.055 132.188L237.253 134.053C209.249 144.982 180.56 156.989 157.282 176.403C129.929 199.216 113.747 231.012 101.7 263.938C87.8323 301.843 76.3593 340.771 65.6643 379.674C60.1913 399.579 54.9983 419.574 50.1163 439.633C45.8143 457.305 42.2483 475.153 37.2683 492.643C47.3683 492.286 58.8873 496.196 67.5103 497.325C106.809 502.469 145.579 510.669 182.682 524.866C187.265 526.62 188.591 531.197 187.593 534.907C190.236 534.161 192.877 533.405 195.52 532.663C192.625 528.226 194.007 520.293 194.234 515.376L194.248 515.038C194.482 508.485 195.193 501.925 195.654 495.384C196.532 482.915 197.675 470.537 199.195 458.139L199.582 455.04C201.304 441.552 202.577 427.985 204.456 414.52L204.678 412.979C203.777 409.534 202.728 406.131 201.627 402.743C198.693 393.718 194.552 385.223 190.923 376.482C190.495 375.453 191.961 374.862 192.646 375.479C198.792 381.008 203.674 388.022 207.596 395.358C207.664 395.012 207.724 394.665 207.795 394.319L208.243 392.116C209.346 386.744 210.689 381.092 213.984 376.735C214.335 376.272 215.029 376.175 215.361 376.735C218.515 382.072 218.868 388.831 219.353 394.904C219.902 401.774 219.971 408.731 219.874 415.62C219.685 429.083 218.736 442.584 217.98 456.025C217.239 469.233 215.782 482.273 213.905 495.352L213.548 497.805C212.631 504.03 211.88 510.332 210.669 516.515L210.327 518.198C209.68 521.264 209.282 525.587 207.994 529.178C241.132 519.935 274.321 510.903 307.573 502.03C331.606 495.616 355.664 489.298 379.712 482.94C380.981 480.653 382.561 478.517 384.533 476.608C391.03 470.316 399.64 467.509 407.537 472.352C408.179 472.747 408.233 473.753 407.537 474.134C406.024 474.961 404.508 475.809 403.019 476.693L417.459 472.782C428.252 469.857 439.174 466.202 450.221 464.163C470.568 454.122 492.452 446.854 513.886 439.671L516.412 438.816C527.387 435.075 538.739 430.886 550.077 428.812C558.378 427.294 568.122 429.126 571.46 437.63C575.686 440.415 579.662 443.688 583.499 446.907C586.273 449.233 588.932 451.706 591.636 454.114L592.135 454.551C594.345 456.469 596.097 457.754 596.639 460.807C596.919 462.384 595.917 464.516 593.972 464.307C588.021 463.67 583.182 456.772 579.146 452.653C576.028 449.469 572.885 446.177 570.039 442.678C568.38 443.581 566.106 443.419 565.05 441.419C559.574 431.05 544.573 438.235 536.273 440.694L524.383 444.213C518.439 445.975 512.496 447.746 506.564 449.548C490.26 454.499 474.036 460.04 457.584 464.587C459.056 466.205 458.853 469.083 456.057 470.178C443.179 475.231 429.051 477.844 415.672 481.311C407.225 483.502 398.783 485.706 390.344 487.923C388.897 490.267 387.856 492.919 387.418 496.006C385.808 507.356 388.914 520.452 391.939 531.43L392.395 533.068C394.882 541.894 398.541 552.714 406.156 558.288C408.015 559.647 410.382 560.593 412.768 560.807C427.675 553.134 442.581 545.462 457.496 537.804C460.259 536.385 462.812 538.306 463.432 540.59C468.691 539.727 473.938 538.367 478.717 536.745C486.747 534.018 493.017 528.817 500.545 525.22C515.111 518.261 529.986 526.808 543.028 533.306L546.034 534.784C551.882 537.621 564.049 543.072 566.855 535.312C569.569 527.804 560.988 519.78 555.446 516.401C548.84 512.372 541.148 510.216 533.682 508.42C529.419 507.394 525.104 506.557 520.763 505.946C515.839 505.253 510.753 505.357 506.012 503.76C503.656 502.968 503.294 499.226 506.012 498.608C513.31 496.947 522.021 498.758 529.637 500.61L533.617 501.591C541.29 503.474 549.037 505.837 556.026 509.593C561.108 512.325 566.472 516.475 569.976 521.555C573.019 518.728 576.806 518.823 580.752 519.872L582.893 520.467C586.429 521.447 589.295 522.121 592.735 521.443C593.195 518.94 593.661 516.436 594.16 513.932C599.063 489.318 604.44 464.798 610.373 440.409C620.607 398.341 632.449 356.735 645.799 315.555L647.139 311.439C650.218 302.02 652.696 291.758 657.66 283.105C662.355 274.923 669.877 270.21 678.814 267.714C688.956 264.882 699.613 263.4 709.959 261.487C712.267 261.061 714.581 260.656 716.891 260.237C714.939 256.712 713.482 252.711 712.169 249.64L711.939 249.109C709.12 242.68 706.587 236.135 704.141 229.556L702.311 224.61C697.895 212.699 693.336 200.984 687.126 189.844C680.59 178.12 671.919 168.535 661.11 160.602C639.072 144.426 612.509 136.175 591.134 118.888C590.258 118.18 591.381 116.969 592.27 117.417C606.703 124.669 622.284 129.6 637.296 135.504L640.258 136.672C652.123 141.376 664.173 146.496 674.443 154.112C685.893 162.604 694.911 173.15 701.689 185.691C708.369 198.053 712.642 211.89 717.355 225.094L718.616 228.612C720.517 233.888 722.48 239.147 724.73 244.282C726.516 248.358 729.849 253.011 731.364 257.667C735.509 256.948 739.653 256.227 743.802 255.534C833.669 240.53 924.54 231.714 1015.61 229.135C1019.18 229.034 1021.02 232.434 1020.49 235.542C1011.75 287.223 1003.99 339.081 995.465 390.801C991.745 413.374 987.951 435.93 984.068 458.475C982.101 469.897 979.827 481.275 977.964 492.714C976.46 501.952 975.368 511.262 972.786 520.286C970.47 528.377 966.916 536.179 961.079 542.352C954.787 549.006 946.005 552.227 937.165 553.749C914.724 557.611 891.706 559.188 869.083 561.761L748.636 575.464C750.396 591.462 750.528 607.212 749.72 623.397L749.26 632.232C748.884 639.339 748.434 646.456 747.413 653.49C746.133 662.313 742.097 669.784 736.152 676.374C730.693 682.426 724.061 687.59 717.61 692.538C710.914 697.676 703.995 702.635 696.122 705.812L695.1 706.217C688.194 708.914 675.237 713.09 665.796 711.564C667.03 717.747 669.418 724.395 667.301 730.513C666.319 733.354 662.604 734.771 660.328 732.354C655.819 727.562 655.467 721.235 654.399 714.985C653.288 708.481 652.33 701.954 651.479 695.411C649.833 682.76 648.552 669.993 648.161 657.235C647.759 644.133 647.914 631.013 648.62 617.925C648.983 611.204 649.433 604.487 650.286 597.809C650.65 594.961 651.022 592.111 651.447 589.27C651.602 588.234 651.774 587.203 651.959 586.174L641.148 587.393C624.572 589.244 607.987 590.915 591.293 591.175C589.316 591.205 587.795 590.305 586.801 588.994C585.742 590.719 583.898 591.953 581.257 591.943C557.944 591.856 536.234 584.233 515.03 575.249C504.342 570.719 493.82 565.815 483.116 561.324C473.125 557.132 462.444 554.141 452.694 549.419L427.074 562.857C426.886 563.518 426.645 564.143 426.389 564.666C424.721 568.071 421.432 569.918 418.073 571.309C414.849 572.647 411.51 573.063 408.257 572.725C388.827 582.907 369.392 593.079 349.945 603.228L330.492 613.368C291.736 633.547 253.133 654.057 214.133 673.762L211.262 675.207C197.791 681.962 183.327 688.808 168.377 693.918C168.111 697.702 168.279 701.382 168.596 705.387L168.673 706.259C169.118 710.992 170.074 716.922 166.277 720.292C164.302 722.044 160.774 722.051 159.431 719.409C156.994 714.618 159.182 707.065 159.954 701.86C160.228 700.009 160.562 698.106 161.056 696.26C143.918 701.362 126.261 703.836 108.821 700.971C91.8413 698.184 78.6903 687.487 68.0883 674.403C56.8993 660.596 48.9483 644.505 44.6823 627.256C39.8273 607.628 39.5103 587.358 39.6243 567.253C39.7453 545.844 40.5373 524.329 43.1413 503.064C40.2883 502.393 37.1243 501.813 34.2413 502.013C32.8133 504.298 30.0433 505.26 27.5403 504.963C22.0973 510.966 35.9033 517.101 40.3153 518.637C41.8473 519.171 41.6833 521.659 39.9163 521.584L38.8033 521.531C31.9859 521.168 24.9427 520.004 20.9343 513.669C17.7223 508.591 18.6873 502.575 22.5163 498.434C25.0453 474.522 31.0913 451.237 36.7183 427.911C42.2403 405.016 48.3813 382.268 54.8903 359.635L57.8083 349.504C68.0566 314.016 78.7687 278.241 92.9053 244.163C99.9643 227.147 108.096 210.444 119.119 195.607C129.394 181.776 141.525 169.941 155.469 159.833C181.464 140.987 211.967 129.6 241.937 118.751L243.278 118.266C258.809 112.648 274.302 106.963 289.656 100.876C303.235 95.4925 316.244 88.6675 329.759 83.2035C329.32 82.4065 328.896 81.6005 328.488 80.7855L328.238 80.9957C328.196 81.0297 328.152 81.0625 328.106 81.0935C326.747 82.0355 324.746 81.5725 323.626 80.5155C320.464 77.5315 321.535 74.2191 323.645 71.1244L323.92 70.7305C326.502 67.1135 328.805 63.2895 331.188 59.5415L332.681 57.1977C336.681 50.9361 340.884 44.6327 346.217 39.4575C348.687 37.0595 351.391 35.2655 354.256 33.9285C354.011 33.4105 356.159 32.3515 356.768 32.8845C365.845 29.5625 376.288 30.2585 386.184 31.1745M742.808 576.126L730.188 577.561C716.304 579.14 702.415 580.668 688.524 582.181L658.351 585.46C658.274 587.18 658.065 588.862 658.027 590.161C657.83 596.858 657.683 603.558 657.544 610.257C657.265 623.685 657.571 637.126 658.455 650.528C659.312 663.514 660.441 676.502 662.194 689.4L662.553 691.979L662.761 693.335C664.192 693.473 665.598 694.153 666.767 695.55C669.319 698.597 678.56 695.635 682.169 694.351C688.104 692.239 693.693 688.671 698.85 685.093C703.887 681.599 708.421 677.525 712.779 673.234L716.345 669.707C719.892 666.183 723.442 662.428 725.615 657.995C728.562 651.983 728.943 644.603 729.807 638.055C730.871 630.001 732.138 621.948 733.477 613.934M376.453 491.584L375.144 491.928C327.593 504.563 280.113 517.571 232.416 529.648C208.812 535.626 185.096 541.169 161.463 547.032L157.637 547.989C138.993 552.701 120.125 558.372 105.848 571.895C105.321 572.393 104.556 571.628 105.052 571.099C120.439 554.719 142.323 547.785 163.335 541.774C167.219 540.663 171.108 539.578 174.993 538.473C146.417 528.286 117.39 519.423 87.6933 513.102C80.0463 511.474 72.3103 510.279 64.6693 508.645C59.3404 507.504 54.1363 505.856 48.8637 504.489L44.7163 503.446L44.6612 516.553C44.5922 535.118 44.6252 553.668 45.5723 572.231L45.7516 575.669C46.8567 596.326 48.5816 617.413 55.9123 636.891C61.8693 652.719 71.3643 667.63 83.7813 679.159C90.0643 684.992 96.8193 689.533 105.169 691.775C112.922 693.856 121.045 694.1 129.015 693.545C167.244 690.878 201.274 670.111 234.482 652.917C288.799 624.794 343.122 596.685 397.494 568.67C396.024 567.665 394.64 566.507 393.381 565.206C386.09 557.676 382.244 547.368 379.718 537.385C377.029 526.759 375.421 515.37 375.234 504.4M445.636 579.526C446.116 579.268 446.672 579.591 446.694 580.133C446.862 584.285 444.567 588.381 442.853 592.122L442.671 592.522C440.588 597.156 438.307 601.728 435.948 606.228C431.233 615.219 426.333 624.114 421.219 632.883C410.935 650.524 399.507 667.422 385.999 682.782C382.948 686.252 377.93 681.803 379.888 678.067C389.328 660.057 400.333 643.052 411.661 626.195C417.332 617.755 422.999 609.307 428.726 600.905C431.116 597.399 433.535 593.906 436.02 590.465L437.519 588.408M1009.59 239.45C961.874 240.891 914.213 244.003 866.723 248.88C822.557 253.415 778.553 259.452 734.797 266.978C725.658 268.549 716.53 270.185 707.414 271.886L701.945 272.915C692.827 274.643 681.688 275.356 673.57 280.227C665.011 285.362 662.698 296.094 659.85 304.944C656.502 315.352 653.239 325.79 650.064 336.253C637.456 377.796 625.939 419.699 615.665 461.879C610.565 482.816 606.04 503.87 601.272 524.883C597.036 543.553 592.362 562.012 587.479 580.495C588.081 580.027 588.819 579.671 589.71 579.481C613.958 574.322 638.71 572.079 663.32 569.229L665.701 568.952C691.16 565.958 716.619 562.986 742.093 560.122L910.752 541.155C920.699 540.036 931.355 539.885 941.035 537.216C957.493 532.675 961.351 514.276 964.112 499.622L964.195 499.18C972.52 454.907 979.147 410.249 986.911 365.864M591.404 529.029C584.856 528.597 575.894 522.6 570.926 523.03C573.534 527.406 574.711 532.397 573.208 537.727C569.025 552.559 550.108 544.885 540.996 540.354C533.525 536.637 526.311 532.089 518.04 530.348C508.67 528.378 502.322 532.104 494.406 536.399C487.904 539.926 480.823 542.459 473.541 543.77C469.669 544.468 465.991 544.542 462.32 544.27C462.099 544.45 461.85 544.617 461.566 544.766L459.624 545.785C468.405 546.187 477.349 548.897 485.521 551.378C493.989 553.947 502.302 557.045 510.571 560.214L518.706 563.34C538.771 571.024 559.542 578.32 581.257 578.257C582.818 578.253 584.097 578.685 585.104 579.39M554.769 482.555C561.238 481.764 567.209 482.612 572.378 486.823C578.612 491.901 582.8 500.323 591.762 500.876C594.375 501.037 594.982 504.711 592.385 505.479C585.714 507.454 580.313 503.845 575.768 499.159L572.712 495.966C568.22 491.315 564.078 487.72 556.457 487.998C548.295 488.296 540.119 490.182 532.01 491.141C522.824 492.227 513.64 493.153 504.425 493.952C503.997 493.989 503.924 493.315 504.325 493.216L514.646 490.647M548.524 456.108L549.591 456.002C558.985 455.089 567.576 455.054 575.965 460.107L577.574 461.08C585.138 465.678 593.371 471.094 598.101 478.537C598.875 479.756 597.596 481.189 596.301 480.879C587.21 478.697 580.564 472.027 572.919 467.035C564.339 461.433 555.476 462.357 545.693 463.227C536.221 464.07 526.754 465.228 517.375 466.807C508.562 468.289 499.721 470.629 490.819 471.375L490.821 471.357C489.804 471.355 489.224 469.828 490.261 469.31C499.295 464.799 509.758 462.664 519.585 460.603M833.889 363.264C832.981 358.921 838.323 356.907 840.799 360.352L841.326 361.078C846.675 368.406 854.411 377.602 854.017 386.923C858.719 387.026 863.594 389.883 865.426 394.126C866.273 396.089 866.56 398.415 866.373 400.823C870.647 401.155 875.308 403.961 877.921 406.693C882.252 411.222 882.594 417.622 879.487 422.914C872.713 434.449 857.914 438.646 845.42 439.582L844.975 439.615C832.071 440.507 813.477 440.266 804.629 429.195C796.094 418.516 805.527 409.87 815.2 405.175C812.682 402.876 811.378 399.579 812.604 396.102C814.757 389.991 822.358 387.63 826.653 383.382C831.889 378.202 835.349 371.097 833.969 363.669M840.981 372.655C839.558 378.839 836.062 384.495 831.193 388.977C829.331 390.691 827.294 392.217 825.13 393.528L824.87 393.679C822.949 394.757 818.229 396.777 818.592 399.196C818.966 401.682 826.657 405.573 828.753 405.575C829.23 405.575 829.5 406.32 829.013 406.536C825.214 408.214 821.896 408.933 818.181 407.16C815.699 409.694 813.288 412.316 810.9 414.915C806.677 419.514 808.122 424.37 813.112 427.794C821.13 433.296 833.318 433.162 842.673 432.762C852.089 432.36 862.154 430.26 869.509 423.988L869.829 423.708C873.827 420.153 877.478 414.129 871.356 410.706C868.959 409.365 866.369 409.444 864.093 408.792C861.963 412.967 858.508 416.311 854.292 416.956C850.885 417.477 848.538 413.194 851.638 411.146L852.334 410.713C856.226 408.229 859.547 404.403 859.459 399.421C859.399 395.962 854.569 391.593 851.422 394.843L851.278 394.999C848.645 397.967 844.007 394.226 845.739 390.938L845.822 390.789M226.862 200.675C226.85 199.932 227.895 199.654 228.26 200.297C234.372 211.05 237.567 224.231 240.823 236.078C244.233 248.488 246.986 261.024 249.459 273.652C254.468 299.223 257.137 324.647 257.318 350.709C257.343 354.43 251.281 355.42 250.688 351.607C246.751 326.256 242.979 300.879 239.012 275.535C237.016 262.788 234.693 250.09 232.47 237.381M287.37 219.405C286.92 217.922 289.078 217.426 289.63 218.782C301.896 248.891 306.05 283.013 298.175 314.778C296.97 319.637 289.853 317.532 290.762 312.734M445.587 192.651C445.525 191.541 446.966 191.366 447.509 192.13C453.321 200.319 455.732 211.286 465.929 215.518C471.02 217.631 476.749 217.263 481.247 220.832C484.254 223.219 486.56 226.987 484.303 230.602C483.575 231.77 481.537 232.355 480.549 231.086C479.107 229.237 478.344 227.023 476.385 225.637C473.622 223.682 469.896 223.561 466.728 222.642C462.63 221.454 459.018 219.375 456.06 216.286M542.686 56.0669C543.285 55.7619 543.86 55.9569 544.243 56.4749C544.79 57.2129 544.723 57.9309 544.053 58.4369C544.948 60.2659 546.005 64.8479 546.156 65.5149C546.768 68.2189 547.419 70.9069 548.1 73.5929C549.474 79.0099 550.678 84.4689 552.053 89.8879C553.511 95.6319 555.248 101.315 557.181 106.916C557.305 107.279 557.442 107.649 557.586 108.025L557.807 108.592L557.861 108.506C558.254 107.885 559.072 108.319 558.975 108.975C558.885 109.573 558.764 110.168 558.662 110.766L558.864 111.302C560.129 114.705 560.995 118.289 558.675 121.292C557.807 122.415 556.852 123.08 555.662 123.278C553.754 129.568 551.36 135.741 548.797 141.669L548.045 143.4C544.275 152.05 540.254 160.587 534.252 167.951C527.698 175.991 518.683 181.481 512.974 190.291C510.318 194.389 508.47 198.698 506.97 203.326L506.405 205.083C505.341 208.356 504.112 211.529 501.042 213.449C500.062 214.061 498.594 213.866 497.804 213.031C491.507 206.37 498.099 193.932 501.896 187.483C507.174 178.515 514.813 172.778 522.462 166.012C530.707 158.719 535.966 148.963 541.053 139.352C544.169 133.464 547.177 127.449 550.344 121.535C547.035 118.611 545.976 112.802 544.855 108.764L544.753 108.402C542.9 101.936 541.428 95.3019 540.498 88.6389C539.603 82.2324 539.229 75.9179 539.466 69.4755L539.534 67.8343M554.988 86.5587C554.257 85.5567 555.467 84.4217 556.47 84.6307C562.568 85.8917 568.53 89.583 574.003 92.5678L574.588 92.8847C578.957 95.2407 583.353 98.1267 585.647 102.704C588.142 107.678 587.936 113.408 587.596 118.814L587.564 119.32C587.147 125.803 587.08 132.539 585.708 138.905C585.006 142.163 582.055 143.081 579.532 142.311C576.53 151.79 568.097 158.774 561.937 166.254C554.083 175.79 555.561 188.665 556.382 200.15C556.714 204.8 550.93 206.122 547.951 203.641L541.086 197.939C539.942 196.987 538.801 196.033 537.662 195.076C536.687 194.255 535.72 193.428 534.762 192.591L533.33 191.327C532.695 190.759 529.894 187.63 529.075 187.5C527.091 187.184 522.378 192.412 520.765 194.052L520.561 194.257C517.525 197.234 514.782 200.437 512.227 203.834C511.757 204.458 510.838 203.94 511.174 203.219C513.463 198.315 516.125 193.626 519.286 189.237L519.925 188.364C522.028 185.53 524.851 180.526 528.563 179.689C533.096 178.667 537.621 183.213 540.919 185.736L541.128 185.894C542.697 187.071 544.248 188.269 545.796 189.475C545.634 180.924 546.714 172.284 551.129 164.915C554.242 159.718 558.906 155.869 562.897 151.403C567.34 146.43 569.66 140.318 573.682 135.139C574.2 134.473 574.914 134.114 575.687 134C575.841 129.836 576.455 125.631 576.929 121.513L577.066 120.28C577.545 115.805 578.677 110.339 576.486 106.148C574.416 102.189 569.668 99.3951 566.151 96.7092L563.28 94.482M357.073 39.2405C355.237 40.3025 353.521 41.6235 351.964 43.2745C347.063 48.4735 343.559 54.9435 340.149 61.1675C338.313 64.5195 336.543 67.9085 334.692 71.2525C333.887 72.7075 333.059 74.1465 332.222 75.5835C331.835 76.2455 330.685 77.5615 330.115 78.3725C330.749 79.26 331.404 80.1338 332.071 80.9981C332.326 81.3279 349.907 100.479 356.035 107.975C365.419 119.456 373.807 131.583 380.978 144.563C388 157.274 393.346 170.732 399.851 183.689C403.107 190.176 406.743 196.617 411.378 202.231C411.557 202.45 411.746 202.657 411.929 202.873C413.698 198.094 418.231 192.977 420.457 190.039L420.665 189.762C425.714 182.956 431.046 176.355 436.494 169.866C441.47 163.94 446.573 158.143 451.799 152.441L453.764 150.308C457.405 146.375 462.03 140.49 467.36 137.68C466.789 136.662 466.128 135.655 465.368 134.661C460.374 128.135 453.315 123.399 446.349 119.126L441.832 116.378C424.804 106.001 408.041 95.1431 393.258 81.6605C385.437 74.5265 377.724 67.0535 371.15 58.7325L368.825 55.7904M385.485 34.1035C377.511 34.7725 368.9 34.6135 361.531 37.2115C368.082 43.4045 374.309 50.0915 380.706 56.3885C381.275 52.1295 382.439 47.9225 383.425 43.7695" fill="black"/>
</svg>
