<svg width="820" height="766" viewBox="0 0 820 766" fill="none" xmlns="http://www.w3.org/2000/svg">
<path fill-rule="evenodd" clip-rule="evenodd" d="M114.306 744.74C126.277 745.48 138.247 746.065 150.217 746.51C306.747 752.343 463.151 734.499 619.585 730.594C674.062 729.16 728.26 729.876 782.597 734.25C787.921 734.678 794.009 728.95 793.355 723.492C783.316 636.838 770.757 550.414 764.248 463.404C764.243 458.802 764.837 454.207 766.419 449.871C766.717 449.531 768.263 445.719 769.638 445.483C769.189 445.815 771.224 445.231 769.928 445.331C777.784 444.045 785.489 435.565 779.788 427.45C721.056 337.433 640.882 255.273 615.088 148.355C608.994 119.449 586.982 117.662 563.532 105.737C556.216 101.386 538.325 89.3324 535.413 80.9524C528.458 50.7494 540.706 21.1604 504.923 8.93936C481.301 2.39036 439.549 -3.15064 415.648 3.75636C386.493 13.4594 388.675 46.3134 371.764 68.9164C363.017 81.99 348.107 99.8902 334.339 101.893C327.666 102.864 322.751 89.3663 316.089 90.2954C212.235 115.518 70.7406 287.584 26.1046 382.834C16.0456 412.811 48.4863 403.767 46.4933 433.897C44.0363 491.058 38.6626 564.234 41.8496 621.463C44.8346 654.679 42.6256 689.482 52.9506 721.449C50.1716 724.823 54.1646 728.232 57.4226 729.698C61.5276 736.679 101.92 743.773 114.306 744.74Z" fill="white"/>
<path fill-rule="evenodd" clip-rule="evenodd" d="M384.684 32.9163C387.384 20.7673 406.714 25.9773 403.404 38.0763C398.274 56.7873 387.634 74.4673 372.615 86.8773C361.014 96.4573 345.205 105.006 329.524 106.586C330.994 108.017 332.404 109.547 333.884 111.006C337.224 114.326 340.774 117.406 344.434 120.366C351.955 126.446 359.774 131.916 368.314 136.496C402.424 154.797 440.955 159.017 479.054 154.756C497.134 152.736 515.484 149.307 532.484 142.696C540.365 139.637 548.024 135.616 554.785 130.537L556.554 129.209C560.108 126.525 564.851 122.738 567.074 118.597C560.314 120.116 551.764 112.916 547.074 108.727C541.945 104.127 537.624 98.1963 534.434 92.1163C528.184 80.1873 524.874 64.7973 530.115 52.0063C530.464 51.1563 531.584 51.2973 531.684 52.2173C533.234 67.1273 537.254 81.1073 547.955 92.1473C552.705 97.0373 558.394 101.137 564.604 103.986L565.478 104.388C568.123 105.612 570.908 107.047 572.024 109.666C572.455 109.616 572.884 109.656 573.294 109.767C573.664 109.866 574.004 109.977 574.334 110.097C573.594 108.647 573.205 106.937 573.274 104.916C573.535 97.0863 584.285 96.8473 585.774 103.817C585.504 102.897 585.144 103.787 585.824 104.067C585.813 103.986 585.794 103.896 585.773 103.817L585.794 103.891L585.834 104.067L585.824 104.067C585.851 104.193 585.873 104.325 585.888 104.457L585.901 104.632L585.893 104.486C585.884 104.378 585.871 104.281 585.856 104.193L585.834 104.067C585.934 104.116 586.074 104.147 586.234 104.147L586.3 104.173C586.55 104.281 587.434 104.693 587.695 104.797C589.484 105.457 591.484 105.666 593.314 106.236C597.285 107.457 600.785 109.477 603.205 112.916C604.945 115.387 605.914 118.217 606.314 121.156C623.884 129.607 640.514 140.586 654.445 154.177C685.535 184.496 707.214 222.446 725.004 261.727C734.058 281.725 742.127 302.146 750.019 322.624L751.264 325.857C759.724 347.866 767.205 370.116 769.044 393.777C769.214 395.897 768.514 397.887 767.304 399.537C767.734 401.317 767.955 403.097 767.894 404.836C767.884 405.107 767.865 405.377 767.844 405.647C770.684 405.597 773.464 406.787 776.104 410.127C777.174 409.787 778.334 409.746 779.474 410.116C786.424 412.336 787.544 419.967 788.854 426.357C790.205 432.957 790.794 439.717 790.804 446.446C790.804 448.857 789.424 451.897 787.084 452.927C782.684 454.866 777.945 456.137 773.394 457.897C769.974 459.217 766.544 460.467 763.084 461.637C765.004 464.986 765.624 469.647 766.664 473.177C768.294 478.687 769.604 484.217 770.705 489.857C778.164 528.207 783.334 566.967 790.314 605.397C793.804 624.647 797.865 643.767 802.004 662.887C804.044 672.287 806.214 681.666 808.544 691.006C809.785 695.986 811.074 700.967 812.404 705.916C812.79 707.363 813.181 708.805 813.577 710.246L814.274 712.767C815.794 713.607 817.094 714.877 817.994 716.616C821.285 722.977 819.394 730.147 813.084 733.727C806.224 737.627 798.035 733.946 794.254 727.616C791.594 723.147 790.724 717.227 789.414 712.256C787.934 706.677 786.524 701.067 785.164 695.457C775.925 657.345 769.737 618.564 765.074 579.638L764.744 576.857C762.374 556.817 760.084 536.727 758.604 516.597C757.874 506.707 757.294 496.817 756.934 486.906C756.754 481.807 757.044 476.677 757.334 471.586C757.464 469.357 757.654 467.116 757.724 464.887L757.746 464.57C757.765 464.344 757.791 464.047 757.812 463.735L757.834 463.357C750.934 465.517 743.934 467.317 736.865 468.836C721.824 472.086 706.434 473.897 691.084 472.977C693.224 498.397 696.014 523.756 699.914 548.946C703.674 573.207 708.014 597.416 712.914 621.477C715.365 633.567 718.014 645.627 720.804 657.647C722.304 664.067 724.014 670.446 725.365 676.897C726.164 680.736 726.414 683.946 724.804 687.537C726.576 692.365 728.151 697.217 729.7 701.785L730.164 703.147C732.904 711.147 738.104 719.326 732.674 727.187C729.865 731.246 725.285 733.567 720.674 733.707C720.594 733.756 720.504 733.817 720.414 733.866C717.934 735.196 715.074 735.457 712.354 734.887C708.224 735.696 704.084 736.477 699.934 737.187C689.684 738.957 679.384 740.416 669.064 741.647C649.414 743.986 629.634 745.267 609.865 745.977C537.484 748.586 465.024 744.006 392.615 745.326C355.724 745.996 318.834 747.656 282.004 749.857C263.624 750.957 245.234 752.137 226.844 753.047L221.151 753.324C204.705 754.111 188.247 754.719 171.814 753.517C171.494 753.496 171.244 753.366 171.074 753.187C165.404 752.547 159.705 747.326 160.274 741.297C162.724 715.616 165.174 689.937 167.634 664.246C172.004 618.477 176.414 572.707 180.874 526.946L181.518 520.34C183.017 504.921 184.447 489.466 185.174 473.986C181.514 473.727 177.865 473.397 174.214 472.996C134.658 468.666 96.7382 456.702 60.3288 440.986L58.8536 440.347C55.5736 438.916 51.9836 437.486 48.3036 435.957C48.3646 442.946 48.1336 449.946 48.1036 456.866C48.0536 468.357 48.1436 479.847 48.1736 491.326C48.2436 514.986 49.1436 538.656 50.3236 562.277C52.3936 603.996 54.8236 645.656 58.5036 687.276C59.4336 697.746 60.6946 708.196 61.5836 718.666C62.1146 724.836 60.8436 729.977 55.1946 733.217C52.4136 734.817 50.2636 734.147 47.5036 732.857C40.7636 729.696 40.5736 722.227 39.9336 715.727C39.4446 710.826 38.9936 705.927 38.5536 701.017C37.6146 690.547 36.8036 680.076 36.1436 669.586C33.5346 627.906 32.7736 586.267 34.5736 544.537C35.4093 525.019 36.6158 505.456 38.217 485.972L38.5936 481.477C39.9136 465.906 40.7636 449.567 43.4936 433.897C32.4836 429.017 21.5736 422.807 16.5136 412.486C9.95459 399.086 17.1636 387.627 27.4336 379.736C27.3336 378.406 27.4336 377.086 27.7136 375.887C30.6636 363.116 35.6036 350.496 40.3736 338.317C45.1836 326.076 50.4936 314.027 56.3336 302.236C79.7736 255.006 111.794 211.847 149.964 175.486C168.924 157.427 189.674 140.736 211.824 126.736C222.804 119.807 234.064 113.406 245.724 107.707L247.447 106.868C255.565 102.929 264.668 98.7406 273.695 96.5473C274.634 95.8473 275.584 95.1873 276.544 94.5573C280.094 92.1963 284.914 93.9063 287.014 97.2763C288.035 96.4863 289.214 95.7873 290.564 95.1563L291.898 94.5473C299.997 90.9005 309.722 87.4905 318.514 89.8873C323.974 91.3773 328.274 95.3973 330.205 100.517C334.634 98.1773 338.984 95.7673 343.234 92.8173C350.064 88.0973 356.254 82.2363 361.814 76.0863C372.964 63.7173 381.064 49.2273 384.684 32.9163ZM771.574 422.916C770.814 423.137 770.014 423.217 769.184 423.116C770.683 423.293 767.679 424.179 766.855 424.604L766.794 424.637C765.294 425.496 763.785 426.326 762.254 427.127C758.684 429.006 755.035 430.696 751.324 432.287C744.014 435.397 736.464 437.787 728.714 439.537C721.134 441.246 713.184 442.246 705.414 442.406C700.214 442.506 694.044 442.267 688.664 440.736C689.285 450.166 689.974 459.586 690.744 468.996L701.369 466.56C711.995 464.122 722.609 461.625 733.094 458.586C740.964 456.307 748.724 453.637 756.394 450.756C760.414 449.246 764.404 447.647 768.344 445.927C770.304 445.071 772.143 444.052 773.96 443.021L775.514 442.137C775.154 437.927 774.494 433.797 773.535 429.637C773.035 427.437 772.184 425.177 771.574 422.916ZM43.9936 378.506C42.6436 382.887 40.5736 386.977 35.8536 387.967C34.1836 388.317 32.7846 388.127 31.6236 387.557L31.3452 388.119C27.4644 396.084 26.3247 404.492 35.2536 410.627C39.2846 413.397 43.6736 415.797 48.2136 417.946C56.3323 421.81 64.9784 424.916 73.1301 428.075L74.7536 428.707C89.3336 434.427 104.144 439.637 119.184 443.996C134.445 448.406 149.974 451.946 165.695 454.196C172.324 455.137 179.004 455.797 185.695 456.227C185.804 447.227 185.754 438.217 185.724 429.217C183.344 428.916 180.984 428.597 178.705 428.326C171.764 427.517 164.844 426.527 157.964 425.297C143.594 422.727 129.374 419.177 115.504 414.637C89.8036 406.207 65.8936 394.156 43.9936 378.506ZM325.764 102.826C319.924 96.6473 308.754 98.8773 301.705 101.877C299.574 102.787 297.424 103.707 295.384 104.817L294.988 105.038C292.613 106.407 292.625 107.22 293.785 109.946C295.294 113.537 297.394 117.006 299.394 120.336C307.955 134.627 319.224 147.067 332.094 157.576C377.674 194.776 443.154 207.897 500.154 195.437C527.51 189.464 553.897 177.406 574.036 157.629L575.87 155.805C583.989 147.68 595.135 135.919 594.354 123.877C593.984 118.086 589.254 117.756 584.424 116.637C582.445 116.177 580.554 115.526 578.914 114.607C580.234 120.297 573.205 128.756 569.574 132.307C561.964 139.756 552.804 145.576 543.115 149.927C524.674 158.217 504.615 162.137 484.644 164.616C461.984 167.437 438.834 167.187 416.344 163.017C396.774 159.387 377.484 152.517 360.644 141.817C352.924 136.916 345.314 131.326 338.874 124.817L337.505 123.434C332.855 118.723 327.445 113.029 324.664 106.847C323.604 106.857 322.554 106.826 321.504 106.756C320.764 106.717 320.365 105.666 321.104 105.276C321.934 104.836 322.764 104.397 323.594 103.967C323.455 103.506 323.334 103.057 323.234 102.597C323.154 102.207 323.564 101.847 323.924 102.067C324.424 102.366 324.904 102.687 325.374 103.026C325.504 102.967 325.634 102.897 325.764 102.826Z" fill="black"/>
</svg>
