<svg width="530" height="567" viewBox="0 0 530 567" fill="none" xmlns="http://www.w3.org/2000/svg">
<path fill-rule="evenodd" clip-rule="evenodd" d="M464.868 144.463C462.647 138.858 458.719 131.813 452.154 131.532C447.076 116.007 434.45 100.196 416.888 100.616C365.34 47.9022 300.444 50.3872 232.594 61.5462C196.798 68.1852 160.451 81.1852 133.753 106.839C101.777 137.041 89.326 189.74 114.366 227.931C92.725 239.528 92.305 267.048 101.56 286.907C90.435 294.6 89.759 313.272 102.286 319.14C101.62 321.868 102.091 324.688 103.361 327.112C97.15 332.282 89.066 336.101 82.383 339.384C79.429 340.835 77.725 343.205 77.017 345.876C55.073 360.272 0.354996 395.454 1.007 423.455C0.684996 438.063 11.521 447.677 24.689 451.505C16.854 467.168 10.907 485.463 18.407 502.359C20.48 507.464 36.0122 522.467 36.7942 522.744C38.1612 523.916 60.444 513.686 71.274 508.468C73.374 522.128 87.981 529.285 100.572 524.604C112.511 521.005 119.85 510.898 127.38 501.704C137.375 523.507 166.782 523.758 185.788 514.358C202.857 506.473 215.832 492.021 223.06 474.606C261.442 493.395 306.348 498.872 348.048 491.367C350.724 496.103 356.648 499.284 361.925 497.452C384.099 490.786 408.616 490.412 427.412 475.139C466.591 447.018 469.89 395.174 467.158 350.981C464.735 306.918 466.856 262.488 458.846 218.901C462.322 206.068 468.104 194.723 473.454 182.667C479.266 170.025 479.144 151.232 464.868 144.463Z" fill="white"/>
<path fill-rule="evenodd" clip-rule="evenodd" d="M100.609 331.496C102.918 330.916 104.158 334.019 102.198 335.266C89.7541 343.181 76.8991 350.25 64.8781 358.862C53.4446 367.049 42.8841 376.374 33.0364 386.401L31.9451 387.518C23.0421 396.677 13.1821 408.329 13.0821 421.84C13.0051 432.342 21.1021 443.805 32.3991 442.425C36.6551 441.905 40.5671 447.305 39.0821 451.198L37.5196 455.301C31.234 471.906 24.8388 490.72 29.8039 508.189L29.9861 508.813C31.1871 512.813 32.4531 516.348 37.0961 516.268C41.4051 516.192 45.8891 514.739 49.9231 513.352C58.2941 510.473 65.8801 505.672 72.3191 499.634C78.0145 494.294 85.2911 499.719 84.5243 506.506L84.4971 506.723C83.4481 514.339 95.5811 517.875 101.097 516.786C111.988 514.632 119.753 503.72 125.938 495.401C128.911 491.404 136.132 489.83 138.744 495.401C143.92 506.436 154.589 514.684 167.07 515.03C173.553 515.209 179.773 513.364 185.264 509.942C187.505 508.544 189.51 506.883 191.348 504.999L191.804 504.524C194.524 501.641 196.401 500.108 199.875 498.225C203.298 496.37 207.726 498.67 207.705 502.717C207.677 507.959 206.141 511.444 202.526 515.246C199.535 518.395 195.981 521.159 192.245 523.368C184.737 527.804 175.811 530.3 167.07 530.011C153.292 529.555 140.141 522.688 131.616 512.008C122.912 522.415 112.115 531.977 98.0841 531.72C87.5801 531.528 77.7911 526.06 73.1011 517.588C66.4801 522.153 59.2131 525.722 51.4391 528.053L50.7464 528.258C39.7424 531.46 27.079 532.733 19.9961 521.809C13.3461 511.553 12.8501 497.35 14.3741 485.627C15.7351 475.155 18.9571 465.21 22.6571 455.401C12.1251 452.256 3.95009 442.363 1.14209 431.699C-3.10591 415.573 5.13509 399.934 15.3231 387.952C26.3901 374.936 40.3191 363.927 54.3521 354.291C68.3481 344.682 84.0271 335.652 100.609 331.496ZM460.479 205.363C460.505 204.915 461.239 204.758 461.307 205.251C466.141 240.329 468.94 275.336 471.257 310.655C472.432 328.548 473.766 346.423 475.226 364.294C476.627 381.431 478.959 399.023 478.432 416.23C477.607 443.174 464.523 465.083 443.069 480.849C422.512 495.958 397.01 503.427 371.989 506.583C357.458 508.417 342.725 508.504 328.178 506.783C320.623 505.888 313.077 504.698 305.677 502.91L302.477 502.11C296.65 500.621 290.143 498.601 289.312 491.698C288.909 488.355 290.685 485.889 293.553 484.211C297.292 482.023 301.579 483.311 305.432 484.309C311.925 485.988 318.487 487.43 325.123 488.427C339.376 490.572 354.028 490.699 368.354 489.215C392.452 486.717 417.872 478.901 436.452 462.759C444.527 455.745 451.548 447.198 455.241 437.044C459.989 423.99 459.286 409.749 459.127 396.078C458.758 364.294 459.083 332.508 458.641 300.72C458.197 268.835 458.584 237.201 460.479 205.363ZM218.145 56.8189C246.303 49.5569 274.88 47.6699 303.804 49.8559C331.081 51.9159 362.154 58.0189 384.432 74.7959C385.513 75.6099 384.866 77.1509 383.528 76.9379C368.634 74.5639 354.116 70.2459 339.286 67.3889C325.022 64.6409 310.501 62.5779 295.977 62.0999C246.855 60.4809 192.196 71.6119 152.586 102.237C134.013 116.596 119.839 135.904 114.198 158.877C108.413 182.44 111.543 207.922 123.16 229.237C124.833 232.306 124.143 237.161 120.653 238.795C110.063 243.753 102.52 254.737 102.684 266.59C102.763 272.339 104.745 277.852 107.93 282.604C111.298 287.629 116.425 291.145 120.192 295.838C121.675 297.686 121.732 300.231 120.557 301.933C122.76 302.898 125.136 303.416 127.304 304.556C129.142 305.523 129.194 308.542 127.304 309.494C122.524 311.901 117.356 309.346 114.13 305.465C113.554 304.772 113.056 304.051 112.602 303.315C108.738 302.496 105.276 300.557 102.253 297.905C96.493 301.354 95.704 309.032 100.652 314.899C103.179 317.894 106.769 319.743 110.397 321.072L110.833 321.229C114.364 322.483 117.598 323.183 119.892 326.008C121.405 322.854 123.142 319.881 125.078 317.172C132.117 307.325 142.937 298.589 155.776 299.698C165.833 300.565 174.546 307.765 176.607 317.699C176.759 318.434 175.651 319.008 175.321 318.241C170.496 306.99 155.229 306.577 146.135 312.44C135.44 319.336 129.595 332.331 127.25 344.434C124.942 356.356 126.276 370.856 135.199 379.924C138.85 383.635 143.817 386.201 149.001 386.877C151.535 387.209 153.77 386.882 156.194 386.394L157.8 386.059C158.914 385.829 160.021 385.642 161.19 385.746L162.931 385.98L163.92 386.443C164.778 386.828 164.701 386.723 163.688 386.125C166.646 385.883 168.175 388.069 168.337 390.466C168.431 390.526 168.522 390.591 168.598 390.684C179.824 404.422 188.159 420.213 200.072 433.501L203.559 437.394C212.525 447.366 222.76 458.178 234.939 463.352L236.388 463.952C239.931 465.448 243.489 467.497 243.941 471.768C244.346 475.594 241.33 478.473 237.853 479.366C229.935 481.397 220.909 474.36 215.11 469.743C202.64 459.818 192.16 447.166 183.505 433.854L182.649 432.528C175.535 421.417 168.848 408.744 166.77 395.557L166.395 396.165C166.367 396.208 166.345 396.24 166.331 396.26C165.907 396.836 165.44 397.322 164.898 397.788C163.442 399.045 161.666 399.779 159.821 400.277C156.358 401.212 152.561 401.396 149.001 401.032C141.77 400.293 135.011 397.541 129.295 393.059C111.891 379.41 109.836 354.012 116.875 333.407C111.099 334.786 104.52 330.899 100.01 327.568C94.838 323.746 90.573 318.229 89.554 311.739C88.542 305.299 92.648 296.771 98.738 294.286C92.419 286.699 88.74 275.932 88.36 267.311C87.7 252.315 95.667 238.141 107.899 229.959C96.396 205.308 94.18 176.709 101.925 150.535C117.294 98.5959 168.778 69.5509 218.145 56.8189ZM174.324 451.442L174.468 450.986C175.693 446.969 177.275 438.979 183.276 442.021C189.009 444.926 185.349 453.525 183.344 457.711C180.945 462.72 176.802 466.736 171.238 467.812C166.712 468.687 161.742 467.563 158.576 464.066C157.653 463.047 157.132 461.929 156.585 460.695C156.372 460.215 156.276 459.886 156.236 459.672C156.184 459.907 156.036 460.257 155.658 460.669C153.132 463.429 150.746 466.642 148.913 469.907C148.479 470.679 147.111 470.138 147.457 469.293C149.592 464.071 149.233 455.996 153.992 452.219C158.187 448.89 162.128 451.51 164.347 455.388L164.46 455.589C167.703 461.477 172.871 455.885 174.324 451.442ZM128.695 432.574L129.133 431.966C133.618 425.836 141.182 418.462 148.751 424.163C151.158 425.976 151.247 429.002 148.751 430.801L147.807 431.476C144.5 433.82 141.208 436.033 138.779 439.395C136.14 443.05 133.77 446.92 130.222 449.787C123.947 454.857 113.806 455.857 108.361 449.022L107.825 448.344C107.37 447.758 106.847 447.051 106.423 446.346L106.093 446.804C106.06 446.85 106.03 446.894 106.002 446.935L105.926 447.051C103.688 450.627 100.861 453.572 97.3401 455.896C90.6481 460.311 83.1071 460.925 75.5361 458.588C74.7951 458.358 74.9941 457.365 75.7111 457.299C84.6821 456.461 93.4231 450.088 97.0721 441.881L97.4842 440.96C98.9608 437.696 100.615 434.593 104.263 433.311C107.814 432.063 111.542 433.381 113.977 436.067C116.013 438.312 116.537 442.775 120.21 441.791C124.232 440.713 126.496 435.676 128.695 432.574ZM103 378.051C104.987 376.541 108.099 378.161 108.646 380.349C111.125 390.255 100.829 401.928 90.9351 402.235C88.3881 402.313 85.9381 401.697 83.6821 400.518C81.9321 399.604 79.8611 397.268 77.9401 396.881C75.4591 396.382 73.2611 399.686 71.5141 401.382C69.3471 403.487 67.2031 405.441 64.7751 407.235C63.8051 407.952 62.3001 406.748 62.7101 405.647L63.5314 403.458C66.5043 395.666 71.6248 384.292 81.2071 387.525C85.9021 389.109 89.4361 394.451 94.3801 390.221C98.3391 386.834 98.7081 381.312 103 378.051ZM145.279 338.172C154.212 327.918 175.211 333.334 179.193 345.809C180.073 348.564 179.155 352.145 177.003 354.095C174.168 356.664 170.124 357.442 166.682 355.427C163.72 353.694 162.504 350.858 160.327 348.425C157.134 344.86 152.791 342.881 148.316 341.463C147.197 342.051 146.156 342.824 145.222 343.756C144.744 344.233 143.841 343.579 144.265 343.017C144.841 342.253 145.545 341.534 146.346 340.871L145.961 340.758C144.783 340.43 144.528 339.036 145.279 338.172ZM203.336 224.957C205.338 224.96 207.67 226.84 207.414 229.036L207.337 229.645C206.761 233.824 205.418 236.19 201.235 238.132C197.686 239.777 193.958 240.686 190.068 241.046C188.596 241.182 187.038 241.189 185.459 241.072L185.127 242.991C184.466 246.827 183.855 250.666 183.74 254.577C183.526 261.826 186.231 267.799 189.132 274.271C194.701 286.704 195.327 299.113 189.264 311.527C188.377 313.342 185.866 314.823 183.84 314.638C181.213 314.4 179.944 313.641 178.416 311.527C177.133 309.753 177.426 307.245 178.315 305.39L178.416 305.186C181.471 299.268 182.434 292.581 180.874 286.074C179.408 279.96 176.087 274.464 174.604 268.367C172.188 258.438 174.761 248.587 179.789 240.068C175.994 238.975 172.484 237.027 170.142 234.057L170.152 234.053C169.258 233.098 169.746 231.102 171.315 231.223L173.089 231.366C178.165 231.79 182.837 232.231 187.97 230.816C190.601 230.09 192.872 228.88 195.131 227.414L195.615 227.096C198.441 225.219 200.008 224.954 203.336 224.957ZM215.483 151.565C228.207 150.842 239.07 159.239 244.351 170.417C250.088 182.552 247.681 196.477 242.618 208.416L241.179 211.758C238.662 217.548 235.356 224.433 230.199 227.54C224.407 231.03 219.4 226.983 221.108 220.55C222.126 216.719 224.881 213.764 227.11 210.602C229.19 207.649 231.131 204.593 232.833 201.405C236.167 195.153 238.656 188.187 238.629 181.024C238.582 167.95 229.944 152.967 215.483 153.159C214.45 153.171 214.467 151.622 215.483 151.565ZM279.836 130.469C279.043 129.867 279.752 128.528 280.639 129.093C295.394 138.477 306.411 156.104 308.629 173.421C309.86 183.029 308.92 193.297 304.828 202.164C302.481 207.252 298.453 212.109 292.821 213.504C287.643 214.785 282.306 211.828 280.699 206.774C280.076 204.813 281.148 202.762 282.767 201.691C288.017 198.22 292.244 193.84 294.717 187.948C297.29 181.822 298.316 175.321 298.347 168.713C298.423 153.238 292.247 139.901 279.836 130.469ZM460.077 137.176C459.394 136.419 460.253 135.303 461.157 135.777C471.824 141.387 478.602 152.133 480.544 163.902C482.447 175.424 479.887 191.11 470.968 199.443C465.935 204.147 456.919 197.891 461.103 191.832C464.053 187.559 467.242 184.04 468.931 178.991C470.437 174.486 470.97 169.943 470.888 165.209C470.709 154.881 467.019 144.876 460.077 137.176ZM329.659 122.748C347.884 121.88 358.929 142.685 361.459 158.192C363.021 167.773 361.847 177.641 356.557 185.951L356.244 186.435C351.88 193.073 343.944 200.716 335.393 197.573C331.774 196.244 330.811 192.367 333.242 189.426C336.962 184.924 342.712 183.089 346.21 178.282C350.134 172.891 351.42 166.137 351.193 159.581L351.162 158.857C350.554 146.797 344.802 123.651 329.659 124.061C328.81 124.083 328.82 122.787 329.659 122.748ZM386.666 119.291C404.294 117.038 415.029 137.776 418.34 152.062C420.408 160.993 420.86 170.956 418.215 179.82L418.018 180.452C415.865 187.067 409.513 198.402 401.22 195.021C398.948 194.095 396.629 191.572 397.717 188.852C399.106 185.375 401.111 184.473 403.783 182.248C405.841 180.535 407.278 178.076 408.336 175.654C411.154 169.199 411.782 161.658 411.397 154.702L411.344 153.879C410.348 140.292 402.981 120.044 386.666 120.416C385.921 120.433 385.972 119.379 386.666 119.291ZM418.939 99.795C428.75 96.059 436.788 105.44 442.428 112.135C449.493 120.524 455.902 129.561 459.525 140.004C462.752 149.309 463.32 159.655 460.413 169.127C458.974 173.817 456.732 178.166 453.672 181.994L453.281 182.477C450.097 186.36 447.022 188.746 441.805 187.356C439.682 186.789 438.785 184.69 439.152 182.684C439.938 178.398 442.147 177.285 445.008 174.293C447.531 171.654 449.403 168.404 450.662 164.987C453.258 157.938 453.393 150.301 451.65 143.039C449.7 134.909 445.862 127.402 441.422 120.367L440.464 118.86C435.759 111.423 429.051 99.9691 419.126 101.176C418.276 101.28 418.265 100.051 418.939 99.795Z" fill="black"/>
</svg>
